<!--?xml version="1.0" standalone="no"?-->
              <svg id="sw-js-blob-svg" viewBox="0 0 100 100" xmlns="http://www.w3.org/2000/svg" version="1.1">
                    <defs> 
                        <linearGradient id="sw-gradient" x1="0" x2="1" y1="1" y2="0">
                            <stop id="stop1" stop-color="rgba(248, 117, 55, 1)" offset="0%"></stop>
                            <stop id="stop2" stop-color="rgba(251, 168, 31, 1)" offset="100%"></stop>
                        </linearGradient>
                    </defs>
                <path fill="url(#sw-gradient)" d="M22,-32C26.3,-27.3,25.8,-17.8,27,-9.8C28.2,-1.8,31,4.6,28.1,7.8C25.2,11,16.7,11.1,11,14.9C5.4,18.7,2.7,26.2,-3.2,30.6C-9.1,35,-18.2,36.3,-23.7,32.5C-29.3,28.6,-31.3,19.7,-31.5,12C-31.7,4.2,-29.9,-2.5,-27.1,-8.1C-24.3,-13.7,-20.4,-18.2,-15.7,-22.8C-11,-27.4,-5.5,-32.1,1.7,-34.4C8.9,-36.8,17.8,-36.8,22,-32Z" width="100%" height="100%" transform="translate(50 50)" stroke-width="0" style="transition: all 0.3s ease 0s;"></path>
              </svg>